<svg width="32" height="31" viewBox="0 0 32 31" fill="none" xmlns="http://www.w3.org/2000/svg">
<path d="M13.5519 13.3913L9.47418 9.31364L4.32692 14.4606L8.40455 18.5383L8.40192 18.541L12.805 22.944L13.5516 23.6854L13.5542 23.688L17.9572 19.285L18.6985 18.5383L32 5.23726L26.8529 0.090271L13.5519 13.3913ZM16.4669 17.7944L15.7256 18.541L13.5518 20.7147L13.5492 20.7121L11.378 18.541L11.3807 18.5383L7.30302 14.4606L9.47411 12.2895L13.5518 16.3672L26.8529 3.06611L29.0241 5.23726L16.4669 17.7944Z" fill="#3D405B"/>
<path d="M28.4077 28.4077H2.10428V2.10428H21.8463L23.9506 0H0V30.512H30.512V9.67276L28.4077 11.777V28.4077Z" fill="#3D405B"/>
</svg>
