<svg width="24" height="22" viewBox="0 0 24 22" fill="none" xmlns="http://www.w3.org/2000/svg">
<path d="M16.7625 14.374L18.0958 13.0406C18.3042 12.8323 18.6667 12.9781 18.6667 13.2781V19.3365C18.6667 20.4406 17.7708 21.3365 16.6667 21.3365H2C0.895833 21.3365 0 20.4406 0 19.3365V4.66979C0 3.56563 0.895833 2.66979 2 2.66979H13.3958C13.6917 2.66979 13.8417 3.02813 13.6333 3.24063L12.3 4.57396C12.2375 4.63646 12.1542 4.66979 12.0625 4.66979H2V19.3365H16.6667V14.6073C16.6667 14.5198 16.7 14.4365 16.7625 14.374ZM23.2875 5.96563L12.3458 16.9073L8.57917 17.324C7.4875 17.4448 6.55833 16.524 6.67917 15.424L7.09583 11.6573L18.0375 0.715625C18.9917 -0.238542 20.5333 -0.238542 21.4833 0.715625L23.2833 2.51563C24.2375 3.46979 24.2375 5.01563 23.2875 5.96563V5.96563ZM19.1708 7.25313L16.75 4.83229L9.00833 12.5781L8.70417 15.299L11.425 14.9948L19.1708 7.25313ZM21.8708 3.93229L20.0708 2.13229C19.9 1.96146 19.6208 1.96146 19.4542 2.13229L18.1667 3.41979L20.5875 5.84063L21.875 4.55313C22.0417 4.37813 22.0417 4.10313 21.8708 3.93229V3.93229Z" fill="white"/>
</svg>
