<svg width="36" height="49" viewBox="0 0 36 49" fill="none" xmlns="http://www.w3.org/2000/svg">
<g filter="url(#filter0_d_7_102)">
<path d="M34 1.76356V33.792C33.9963 34.2589 33.809 34.7056 33.4787 35.0355C33.1484 35.3655 32.7016 35.5523 32.2347 35.5556H3.76533C3.29745 35.5556 2.8487 35.3698 2.51768 35.0391C2.18667 34.7085 2.00047 34.2599 2 33.792V1.76356C2.00372 1.29668 2.19097 0.850001 2.52128 0.520023C2.85159 0.190045 3.29845 0.00325341 3.76533 0H32.2347C33.2089 0 34 0.789334 34 1.76356V1.76356ZM16.7431 19.7724L12.3431 15.3707L9.82933 17.8862L16.7431 24.8L26.8 14.7431L24.2862 12.2293L16.7431 19.7707V19.7724Z" fill="#3D405B"/>
</g>
<path d="M4.84859 46.605C4.80126 46.605 4.76254 46.59 4.73242 46.5599C4.7023 46.5297 4.68724 46.491 4.68724 46.4437V43.1006H3.53847C3.49114 43.1006 3.45242 43.0856 3.4223 43.0555C3.39219 43.021 3.37713 42.9823 3.37713 42.9393V42.2487C3.37713 42.2014 3.39219 42.1627 3.4223 42.1326C3.45242 42.1025 3.49114 42.0874 3.53847 42.0874H7.01061C7.05793 42.0874 7.09666 42.1025 7.12677 42.1326C7.15689 42.1627 7.17195 42.2014 7.17195 42.2487V42.9393C7.17195 42.9823 7.15689 43.021 7.12677 43.0555C7.09666 43.0856 7.05793 43.1006 7.01061 43.1006H5.86183V46.4437C5.86183 46.491 5.84677 46.5297 5.81666 46.5599C5.78654 46.59 5.74782 46.605 5.70049 46.605H4.84859ZM8.7079 46.6696C8.34649 46.6696 8.04101 46.6115 7.79146 46.4953C7.54622 46.3792 7.35691 46.2135 7.22353 45.9984C7.09445 45.779 7.02131 45.5187 7.0041 45.2175C6.9998 45.1314 6.99765 45.0346 6.99765 44.9271C6.99765 44.8152 6.9998 44.7184 7.0041 44.6366C7.02131 44.3312 7.09876 44.0709 7.23644 43.8557C7.37412 43.6406 7.56558 43.475 7.81082 43.3588C8.06037 43.2426 8.3594 43.1845 8.7079 43.1845C9.06071 43.1845 9.35973 43.2426 9.60498 43.3588C9.85452 43.475 10.0481 43.6406 10.1858 43.8557C10.3235 44.0709 10.4009 44.3312 10.4182 44.6366C10.4225 44.7184 10.4246 44.8152 10.4246 44.9271C10.4246 45.0346 10.4225 45.1314 10.4182 45.2175C10.4009 45.5187 10.3256 45.779 10.1923 45.9984C10.0632 46.2135 9.87388 46.3792 9.62434 46.4953C9.37909 46.6115 9.07361 46.6696 8.7079 46.6696ZM8.7079 45.8822C8.90151 45.8822 9.04134 45.8241 9.1274 45.708C9.21775 45.5918 9.26938 45.4175 9.28229 45.1852C9.28659 45.1207 9.28874 45.0346 9.28874 44.9271C9.28874 44.8195 9.28659 44.7334 9.28229 44.6689C9.26938 44.4409 9.21775 44.2688 9.1274 44.1526C9.04134 44.0321 8.90151 43.9719 8.7079 43.9719C8.51859 43.9719 8.37876 44.0321 8.2884 44.1526C8.19805 44.2688 8.14857 44.4409 8.13997 44.6689C8.13566 44.7334 8.13351 44.8195 8.13351 44.9271C8.13351 45.0346 8.13566 45.1207 8.13997 45.1852C8.14857 45.4175 8.19805 45.5918 8.2884 45.708C8.37876 45.8241 8.51859 45.8822 8.7079 45.8822ZM12.3114 46.6696C12.1049 46.6696 11.9177 46.6373 11.7499 46.5728C11.5864 46.5039 11.4444 46.405 11.3239 46.2759C11.2078 46.1425 11.1174 45.9833 11.0529 45.7983C10.9884 45.609 10.9518 45.3939 10.9432 45.1529C10.9389 45.0669 10.9367 44.9916 10.9367 44.9271C10.9367 44.8582 10.9389 44.7829 10.9432 44.7012C10.9518 44.4688 10.9884 44.2602 11.0529 44.0752C11.1174 43.8902 11.2078 43.731 11.3239 43.5976C11.4401 43.4642 11.5821 43.3631 11.7499 43.2943C11.9177 43.2211 12.1049 43.1845 12.3114 43.1845C12.5265 43.1845 12.7115 43.2211 12.8664 43.2943C13.0213 43.3631 13.1525 43.4534 13.2601 43.5653V42.1842C13.2601 42.1369 13.2751 42.0982 13.3053 42.068C13.3354 42.0379 13.3741 42.0229 13.4214 42.0229H14.2088C14.2518 42.0229 14.2884 42.0379 14.3185 42.068C14.3529 42.0982 14.3701 42.1369 14.3701 42.1842V46.4437C14.3701 46.491 14.3529 46.5297 14.3185 46.5599C14.2884 46.59 14.2518 46.605 14.2088 46.605H13.4795C13.4322 46.605 13.3935 46.59 13.3633 46.5599C13.3332 46.5297 13.3182 46.491 13.3182 46.4437V46.2372C13.2149 46.3619 13.0815 46.4652 12.918 46.547C12.7545 46.6287 12.5523 46.6696 12.3114 46.6696ZM12.6599 45.8048C12.8062 45.8048 12.9202 45.7747 13.0019 45.7144C13.088 45.6499 13.1504 45.5681 13.1891 45.4692C13.2321 45.3702 13.2558 45.2627 13.2601 45.1465C13.2644 45.0604 13.2665 44.9787 13.2665 44.9012C13.2665 44.8238 13.2644 44.7442 13.2601 44.6625C13.2558 44.5549 13.2321 44.4559 13.1891 44.3656C13.1461 44.2709 13.0815 44.1956 12.9955 44.1397C12.9094 44.0795 12.7976 44.0493 12.6599 44.0493C12.5179 44.0493 12.4039 44.0795 12.3178 44.1397C12.2361 44.1999 12.178 44.2817 12.1436 44.3849C12.1092 44.4882 12.0876 44.6022 12.079 44.727C12.0661 44.8604 12.0661 44.9937 12.079 45.1271C12.0876 45.2519 12.1092 45.3659 12.1436 45.4692C12.178 45.5724 12.2361 45.6542 12.3178 45.7144C12.4039 45.7747 12.5179 45.8048 12.6599 45.8048ZM16.7184 46.6696C16.357 46.6696 16.0515 46.6115 15.802 46.4953C15.5567 46.3792 15.3674 46.2135 15.234 45.9984C15.105 45.779 15.0318 45.5187 15.0146 45.2175C15.0103 45.1314 15.0082 45.0346 15.0082 44.9271C15.0082 44.8152 15.0103 44.7184 15.0146 44.6366C15.0318 44.3312 15.1093 44.0709 15.2469 43.8557C15.3846 43.6406 15.5761 43.475 15.8213 43.3588C16.0709 43.2426 16.3699 43.1845 16.7184 43.1845C17.0712 43.1845 17.3702 43.2426 17.6155 43.3588C17.865 43.475 18.0586 43.6406 18.1963 43.8557C18.334 44.0709 18.4114 44.3312 18.4287 44.6366C18.433 44.7184 18.4351 44.8152 18.4351 44.9271C18.4351 45.0346 18.433 45.1314 18.4287 45.2175C18.4114 45.5187 18.3362 45.779 18.2028 45.9984C18.0737 46.2135 17.8844 46.3792 17.6348 46.4953C17.3896 46.6115 17.0841 46.6696 16.7184 46.6696ZM16.7184 45.8822C16.912 45.8822 17.0518 45.8241 17.1379 45.708C17.2283 45.5918 17.2799 45.4175 17.2928 45.1852C17.2971 45.1207 17.2992 45.0346 17.2992 44.9271C17.2992 44.8195 17.2971 44.7334 17.2928 44.6689C17.2799 44.4409 17.2283 44.2688 17.1379 44.1526C17.0518 44.0321 16.912 43.9719 16.7184 43.9719C16.5291 43.9719 16.3893 44.0321 16.2989 44.1526C16.2086 44.2688 16.1591 44.4409 16.1505 44.6689C16.1462 44.7334 16.144 44.8195 16.144 44.9271C16.144 45.0346 16.1462 45.1207 16.1505 45.1852C16.1591 45.4175 16.2086 45.5918 16.2989 45.708C16.3893 45.8241 16.5291 45.8822 16.7184 45.8822ZM19.3022 46.605C19.2549 46.605 19.2161 46.59 19.186 46.5599C19.1559 46.5297 19.1408 46.491 19.1408 46.4437V42.2487C19.1408 42.2014 19.1559 42.1627 19.186 42.1326C19.2161 42.1025 19.2549 42.0874 19.3022 42.0874H20.1541C20.1971 42.0874 20.2337 42.1025 20.2638 42.1326C20.2982 42.1627 20.3154 42.2014 20.3154 42.2487V45.6305H22.2645C22.3118 45.6305 22.3505 45.6477 22.3806 45.6822C22.4151 45.7123 22.4323 45.751 22.4323 45.7983V46.4437C22.4323 46.491 22.4151 46.5297 22.3806 46.5599C22.3505 46.59 22.3118 46.605 22.2645 46.605H19.3022ZM23.082 46.605C23.0347 46.605 22.996 46.59 22.9659 46.5599C22.9357 46.5297 22.9207 46.491 22.9207 46.4437V43.4104C22.9207 43.3631 22.9357 43.3244 22.9659 43.2943C22.996 43.2641 23.0347 43.2491 23.082 43.2491H23.8436C23.8866 43.2491 23.9232 43.2641 23.9533 43.2943C23.9877 43.3244 24.0049 43.3631 24.0049 43.4104V46.4437C24.0049 46.491 23.9877 46.5297 23.9533 46.5599C23.9232 46.59 23.8866 46.605 23.8436 46.605H23.082ZM23.0756 42.765C23.0283 42.765 22.9895 42.75 22.9594 42.7199C22.9293 42.6897 22.9142 42.651 22.9142 42.6037V42.0293C22.9142 41.982 22.9293 41.9433 22.9594 41.9131C22.9895 41.8787 23.0283 41.8615 23.0756 41.8615H23.8436C23.8909 41.8615 23.9296 41.8787 23.9597 41.9131C23.9942 41.9433 24.0114 41.982 24.0114 42.0293V42.6037C24.0114 42.651 23.9942 42.6897 23.9597 42.7199C23.9296 42.75 23.8909 42.765 23.8436 42.765H23.0756ZM26.2619 46.6696C25.9822 46.6696 25.7434 46.6395 25.5455 46.5792C25.3519 46.5147 25.1927 46.4372 25.0679 46.3469C24.9475 46.2565 24.8571 46.164 24.7969 46.0694C24.7366 45.9704 24.7044 45.8865 24.7001 45.8177C24.6958 45.7704 24.7108 45.7316 24.7452 45.7015C24.7797 45.6671 24.8162 45.6499 24.855 45.6499H25.5907C25.6036 45.6499 25.6144 45.652 25.623 45.6563C25.6316 45.6606 25.6445 45.6692 25.6617 45.6822C25.7176 45.7123 25.7735 45.751 25.8295 45.7983C25.8854 45.8413 25.9499 45.8801 26.0231 45.9145C26.0962 45.9489 26.1844 45.9661 26.2877 45.9661C26.4082 45.9661 26.5093 45.9425 26.591 45.8951C26.6728 45.8478 26.7136 45.7768 26.7136 45.6822C26.7136 45.6133 26.6943 45.5574 26.6556 45.5144C26.6168 45.467 26.5372 45.4218 26.4168 45.3788C26.3006 45.3358 26.1242 45.2928 25.8876 45.2497C25.6638 45.1981 25.4681 45.1314 25.3003 45.0497C25.1325 44.9636 25.0034 44.8539 24.913 44.7205C24.8227 44.5829 24.7775 44.4172 24.7775 44.2236C24.7775 44.0515 24.8334 43.8858 24.9453 43.7267C25.0572 43.5675 25.2207 43.4384 25.4358 43.3394C25.6509 43.2362 25.9155 43.1845 26.2296 43.1845C26.4792 43.1845 26.6943 43.2147 26.875 43.2749C27.06 43.3308 27.2149 43.404 27.3397 43.4943C27.4687 43.5847 27.5655 43.6772 27.6301 43.7718C27.6946 43.8665 27.729 43.9525 27.7333 44.03C27.7376 44.073 27.7247 44.1117 27.6946 44.1462C27.6645 44.1763 27.6301 44.1913 27.5914 44.1913H26.9202C26.903 44.1913 26.8857 44.1892 26.8685 44.1849C26.8513 44.1763 26.8363 44.1677 26.8234 44.1591C26.7717 44.1332 26.7201 44.0988 26.6685 44.0558C26.6168 44.0128 26.5566 43.974 26.4878 43.9396C26.4189 43.9052 26.3329 43.888 26.2296 43.888C26.1134 43.888 26.0231 43.9138 25.9586 43.9654C25.894 44.0171 25.8617 44.0838 25.8617 44.1655C25.8617 44.2214 25.879 44.2731 25.9134 44.3204C25.9521 44.3677 26.0274 44.4108 26.1393 44.4495C26.2554 44.4882 26.434 44.5312 26.6749 44.5786C26.9718 44.6259 27.2084 44.7033 27.3848 44.8109C27.5612 44.9142 27.686 45.0368 27.7592 45.1788C27.8323 45.3164 27.8689 45.4627 27.8689 45.6176C27.8689 45.8241 27.8065 46.007 27.6817 46.1662C27.5612 46.3254 27.3805 46.4502 27.1396 46.5405C26.8987 46.6266 26.6061 46.6696 26.2619 46.6696ZM30.1458 46.605C29.8704 46.605 29.6316 46.562 29.4294 46.476C29.2315 46.3856 29.0788 46.2479 28.9712 46.0629C28.8636 45.8736 28.8099 45.6305 28.8099 45.3336V44.0945H28.3065C28.2591 44.0945 28.2183 44.0795 28.1838 44.0493C28.1537 44.0192 28.1387 43.9805 28.1387 43.9332V43.4104C28.1387 43.3631 28.1537 43.3244 28.1838 43.2943C28.2183 43.2641 28.2591 43.2491 28.3065 43.2491H28.8099V42.1842C28.8099 42.1369 28.8249 42.0982 28.855 42.068C28.8895 42.0379 28.9282 42.0229 28.9712 42.0229H29.7198C29.7672 42.0229 29.8059 42.0379 29.836 42.068C29.8661 42.0982 29.8812 42.1369 29.8812 42.1842V43.2491H30.6879C30.7352 43.2491 30.774 43.2641 30.8041 43.2943C30.8342 43.3244 30.8493 43.3631 30.8493 43.4104V43.9332C30.8493 43.9805 30.8342 44.0192 30.8041 44.0493C30.774 44.0795 30.7352 44.0945 30.6879 44.0945H29.8812V45.2433C29.8812 45.3896 29.9092 45.5057 29.9651 45.5918C30.021 45.6778 30.1157 45.7209 30.2491 45.7209H30.746C30.7933 45.7209 30.832 45.7359 30.8622 45.766C30.8923 45.7962 30.9073 45.8349 30.9073 45.8822V46.4437C30.9073 46.491 30.8923 46.5297 30.8622 46.5599C30.832 46.59 30.7933 46.605 30.746 46.605H30.1458Z" fill="#3D405B"/>
<defs>
<filter id="filter0_d_7_102" x="0.92437" y="0" width="34.1513" height="37.7068" filterUnits="userSpaceOnUse" color-interpolation-filters="sRGB">
<feFlood flood-opacity="0" result="BackgroundImageFix"/>
<feColorMatrix in="SourceAlpha" type="matrix" values="0 0 0 0 0 0 0 0 0 0 0 0 0 0 0 0 0 0 127 0" result="hardAlpha"/>
<feOffset dy="1.07563"/>
<feGaussianBlur stdDeviation="0.537815"/>
<feComposite in2="hardAlpha" operator="out"/>
<feColorMatrix type="matrix" values="0 0 0 0 0 0 0 0 0 0 0 0 0 0 0 0 0 0 0.25 0"/>
<feBlend mode="normal" in2="BackgroundImageFix" result="effect1_dropShadow_7_102"/>
<feBlend mode="normal" in="SourceGraphic" in2="effect1_dropShadow_7_102" result="shape"/>
</filter>
</defs>
</svg>
